<svg width="24" height="25" viewBox="0 0 24 25" fill="none" xmlns="http://www.w3.org/2000/svg">
<path d="M12 0.875C5.57812 0.875 0.375 6.125 0.375 12.5C0.375 18.9219 5.57812 24.125 12 24.125C18.375 24.125 23.625 18.9219 23.625 12.5C23.625 6.125 18.375 0.875 12 0.875ZM12 21.875C6.79688 21.875 2.625 17.7031 2.625 12.5C2.625 7.34375 6.79688 3.125 12 3.125C17.1562 3.125 21.375 7.34375 21.375 12.5C21.375 17.7031 17.1562 21.875 12 21.875ZM17.0156 9.92188C17.0156 7.57812 14.5312 5.75 12.2344 5.75C10.0312 5.75 8.625 6.6875 7.54688 8.32812C7.35938 8.5625 7.40625 8.89062 7.64062 9.07812L8.95312 10.0625C9.1875 10.25 9.5625 10.2031 9.75 9.96875C10.4531 9.07812 10.9688 8.5625 12.0469 8.5625C12.8906 8.5625 13.9219 9.07812 13.9219 9.92188C13.9219 10.5312 13.4062 10.8125 12.5625 11.2812C11.625 11.8438 10.3594 12.5 10.3594 14.1875V14.5625C10.3594 14.8906 10.5938 15.125 10.9219 15.125H13.0312C13.3594 15.125 13.5938 14.8906 13.5938 14.5625V14.2812C13.5938 13.1094 17.0156 13.0625 17.0156 9.92188ZM13.9688 17.75C13.9688 16.6719 13.0781 15.7812 12 15.7812C10.875 15.7812 10.0312 16.6719 10.0312 17.75C10.0312 18.875 10.875 19.7188 12 19.7188C13.0781 19.7188 13.9688 18.875 13.9688 17.75Z" fill="#4BB45E"/>
</svg>
