<svg width="86" height="86" viewBox="0 0 86 86" fill="none" xmlns="http://www.w3.org/2000/svg">
<path d="M83.3125 61.8125V61.8125C83.3125 57.5428 81.4694 53.481 78.2561 50.6694L77.4319 49.9482C74.2928 47.2015 70.2634 45.6875 66.0922 45.6875H61.8125" stroke="#407014" stroke-width="2" stroke-miterlimit="10" stroke-linecap="round" stroke-linejoin="round"/>
<path d="M32.25 77.9375C35.2185 77.9375 37.625 75.531 37.625 72.5625C37.625 69.594 35.2185 67.1875 32.25 67.1875C29.2815 67.1875 26.875 69.594 26.875 72.5625C26.875 75.531 29.2815 77.9375 32.25 77.9375Z" stroke="#407014" stroke-width="2" stroke-miterlimit="10" stroke-linecap="round" stroke-linejoin="round"/>
<path d="M72.5625 77.9375C75.531 77.9375 77.9375 75.531 77.9375 72.5625C77.9375 69.594 75.531 67.1875 72.5625 67.1875C69.594 67.1875 67.1875 69.594 67.1875 72.5625C67.1875 75.531 69.594 77.9375 72.5625 77.9375Z" stroke="#407014" stroke-width="2" stroke-miterlimit="10" stroke-linecap="round" stroke-linejoin="round"/>
<path d="M67.1875 72.5625H38.9688M26.875 72.5625V72.5625C23.9065 72.5625 21.5 70.156 21.5 67.1875V61.8125M21.5 61.8125H83.3125V67.1875C83.3125 70.156 80.906 72.5625 77.9375 72.5625V72.5625M21.5 61.8125V40.0437M32.9219 32.25H56.4375C59.406 32.25 61.8125 34.6565 61.8125 37.625V61.8125M2.6875 51.0625H10.75M8.0625 61.8125H10.75" stroke="#407014" stroke-width="2" stroke-miterlimit="10" stroke-linecap="round" stroke-linejoin="round"/>
<path d="M18.8125 40.3125C27.7181 40.3125 34.9375 33.0931 34.9375 24.1875C34.9375 15.2819 27.7181 8.0625 18.8125 8.0625C9.90691 8.0625 2.6875 15.2819 2.6875 24.1875C2.6875 33.0931 9.90691 40.3125 18.8125 40.3125Z" stroke="#FF0D0D" stroke-width="2" stroke-miterlimit="10" stroke-linecap="round" stroke-linejoin="round"/>
<path d="M18.8125 16.125V26.875H26.875" stroke="#FF0D0D" stroke-width="2" stroke-miterlimit="10" stroke-linecap="round" stroke-linejoin="round"/>
</svg>
