<svg width="86" height="86" viewBox="0 0 86 86" fill="none" xmlns="http://www.w3.org/2000/svg">
<path d="M64.5 82.8438H29.5625V61.3438L36.2812 54.625H57.7812L64.5 61.3438V82.8438Z" stroke="#407014" stroke-width="2" stroke-miterlimit="10" stroke-linecap="round" stroke-linejoin="round"/>
<path d="M61.3316 31.1484C55.3469 43.519 54.0179 48.6257 53.1377 77.0346" stroke="#407014" stroke-width="2" stroke-miterlimit="10" stroke-linecap="round" stroke-linejoin="round"/>
<path d="M38.3887 31.1484C43.8429 41.5209 46.6074 53.9057 46.6074 76.8488" stroke="#407014" stroke-width="2" stroke-miterlimit="10" stroke-linecap="round" stroke-linejoin="round"/>
<path d="M22.1359 48.0703C31.4281 51.3848 40.0273 61.2839 40.0273 77.0383" stroke="#407014" stroke-width="2" stroke-miterlimit="10" stroke-linecap="round" stroke-linejoin="round"/>
<path d="M66.2485 16.4008C66.2485 20.0211 62.9709 24.5947 62.9709 24.5947C62.9709 24.5947 59.6934 20.0211 59.6934 16.4008C59.6934 12.7804 61.1608 11.4844 62.9709 11.4844C64.7811 11.4844 66.2485 12.7804 66.2485 16.4008Z" stroke="#FF0D0D" stroke-width="2" stroke-miterlimit="10" stroke-linecap="round" stroke-linejoin="round"/>
<path d="M25.0087 38.899C24.0939 41.4555 19.8523 43.5809 19.8523 43.5809C19.8523 43.5809 17.922 39.247 18.8368 36.6905C19.7516 34.134 21.4607 33.7131 23.1651 34.323C24.8694 34.9329 25.9235 36.3425 25.0087 38.899Z" stroke="#FF0D0D" stroke-width="2" stroke-miterlimit="10" stroke-linecap="round" stroke-linejoin="round"/>
<path d="M73.4 22.0804C70.8401 24.6403 65.2884 25.5568 65.2884 25.5568C65.2884 25.5568 66.2049 20.0051 68.7648 17.4452C71.3248 14.8852 73.2788 15.0064 74.5588 16.2864C75.8388 17.5663 75.96 19.5204 73.4 22.0804Z" stroke="#FF0D0D" stroke-width="2" stroke-miterlimit="10" stroke-linecap="round" stroke-linejoin="round"/>
<path d="M74.442 31.1489C70.8217 31.1489 66.2481 27.8713 66.2481 27.8713C66.2481 27.8713 70.8217 24.5937 74.442 24.5937C78.0623 24.5937 79.3584 26.0612 79.3584 27.8713C79.3584 29.6815 78.0623 31.1489 74.442 31.1489Z" stroke="#FF0D0D" stroke-width="2" stroke-miterlimit="10" stroke-linecap="round" stroke-linejoin="round"/>
<path d="M28.5515 48.5121C25.866 48.9131 21.9894 46.1779 21.9894 46.1779C21.9894 46.1779 24.8981 42.4297 27.5836 42.0288C30.2691 41.6279 31.4471 42.9357 31.7144 44.726C31.9817 46.5164 31.237 48.1112 28.5515 48.5121Z" stroke="#FF0D0D" stroke-width="2" stroke-miterlimit="10" stroke-linecap="round" stroke-linejoin="round"/>
<path d="M68.7653 38.2994C66.2054 35.7395 65.2889 30.1878 65.2889 30.1878C65.2889 30.1878 70.8406 31.1043 73.4005 33.6642C75.9605 36.2242 75.8393 38.1783 74.5593 39.4582C73.2794 40.7382 71.3253 40.8594 68.7653 38.2994Z" stroke="#FF0D0D" stroke-width="2" stroke-miterlimit="10" stroke-linecap="round" stroke-linejoin="round"/>
<path d="M22.1237 56.1655C20.4928 54.1086 20.9878 49.484 20.9878 49.484C20.9878 49.484 25.6035 50.0562 27.2345 52.1131C28.8654 54.1699 28.3051 55.8134 26.8939 56.9325C25.4826 58.0515 23.7546 58.2223 22.1237 56.1655Z" stroke="#FF0D0D" stroke-width="2" stroke-miterlimit="10" stroke-linecap="round" stroke-linejoin="round"/>
<path d="M66.2485 39.3414C66.2485 35.7211 62.9709 31.1475 62.9709 31.1475C62.9709 31.1475 59.6934 35.7211 59.6934 39.3414C59.6934 42.9618 61.1608 44.2578 62.9709 44.2578C64.7811 44.2578 66.2485 42.9618 66.2485 39.3414Z" stroke="#FF0D0D" stroke-width="2" stroke-miterlimit="10" stroke-linecap="round" stroke-linejoin="round"/>
<path d="M18.6593 56.6431C19.5742 54.0866 17.6439 49.7526 17.6439 49.7526C17.6439 49.7526 13.4022 51.878 12.4874 54.4345C11.5726 56.991 12.6267 58.4006 14.3311 59.0105C16.0354 59.6204 17.7445 59.1996 18.6593 56.6431Z" stroke="#FF0D0D" stroke-width="2" stroke-miterlimit="10" stroke-linecap="round" stroke-linejoin="round"/>
<path d="M57.177 38.2994C59.737 35.7395 60.6534 30.1878 60.6534 30.1878C60.6534 30.1878 55.1018 31.1043 52.5418 33.6642C49.9819 36.2242 50.1031 38.1783 51.383 39.4582C52.663 40.7382 54.6171 40.8594 57.177 38.2994Z" stroke="#FF0D0D" stroke-width="2" stroke-miterlimit="10" stroke-linecap="round" stroke-linejoin="round"/>
<path d="M51.4994 31.1489C55.1197 31.1489 59.6934 27.8713 59.6934 27.8713C59.6934 27.8713 55.1197 24.5938 51.4994 24.5938C47.8791 24.5938 46.583 26.0612 46.583 27.8713C46.583 29.6815 47.8791 31.1489 51.4994 31.1489Z" stroke="#FF0D0D" stroke-width="2" stroke-miterlimit="10" stroke-linecap="round" stroke-linejoin="round"/>
<path d="M9.91262 51.2983C12.5981 50.8973 15.5068 47.1492 15.5068 47.1492C15.5068 47.1492 11.6302 44.414 8.94472 44.8149C6.25924 45.2158 5.51452 46.8107 5.7818 48.601C6.04908 50.3914 7.22714 51.6992 9.91262 51.2983Z" stroke="#FF0D0D" stroke-width="2" stroke-miterlimit="10" stroke-linecap="round" stroke-linejoin="round"/>
<path d="M52.5414 22.0804C55.1013 24.6403 60.653 25.5568 60.653 25.5568C60.653 25.5568 59.7366 20.0051 57.1766 17.4452C54.6166 14.8852 52.6626 15.0064 51.3826 16.2864C50.1026 17.5663 49.9814 19.5204 52.5414 22.0804Z" stroke="#FF0D0D" stroke-width="2" stroke-miterlimit="10" stroke-linecap="round" stroke-linejoin="round"/>
<path d="M10.154 41.373C11.8123 43.4643 16.6079 43.9647 16.6079 43.9647C16.6079 43.9647 17.2138 39.1813 15.5556 37.09C13.8973 34.9987 12.0945 35.2088 10.6029 36.3915C9.11134 37.5742 8.4958 39.2817 10.154 41.373Z" stroke="#FF0D0D" stroke-width="2" stroke-miterlimit="10" stroke-linecap="round" stroke-linejoin="round"/>
<circle cx="18.7483" cy="46.6604" r="3.27759" stroke="#FF0D0D" stroke-width="2" stroke-miterlimit="10" stroke-linecap="round" stroke-linejoin="round"/>
<circle cx="62.9709" cy="27.8713" r="3.27759" stroke="#FF0D0D" stroke-width="2" stroke-miterlimit="10" stroke-linecap="round" stroke-linejoin="round"/>
<path d="M37.0699 20.2577C34.7169 15.4516 25.3029 12.1168 25.3029 12.1168C25.3029 12.1168 24.3356 20.2566 28.4535 25.8241C31.6827 30.1901 38.4424 31.3142 38.4424 31.3142C38.4424 31.3142 39.6797 25.5884 37.0699 20.2577Z" stroke="#FF0D0D" stroke-width="2" stroke-miterlimit="10" stroke-linecap="round" stroke-linejoin="round"/>
<path d="M38.4531 31.9766C38.4531 31.9766 44.2574 25.5044 41.5574 16.7173C37.7925 4.4642 28.0369 4.4642 28.0369 4.4642C28.0369 4.4642 25.4977 7.75097 25.3038 12.1198" stroke="#FF0D0D" stroke-width="2" stroke-miterlimit="10" stroke-linecap="round" stroke-linejoin="round"/>
<path d="M38.0977 32.0625C38.0977 32.0625 30.0703 35.2217 23.3506 28.9489C14.6269 20.8054 17.9762 10.7519 17.9762 10.7519C17.9762 10.7519 21.8675 10.8555 25.7726 12.3573" stroke="#FF0D0D" stroke-width="2" stroke-miterlimit="10" stroke-linecap="round" stroke-linejoin="round"/>
</svg>
