<svg width="22" height="16" viewBox="0 0 22 16" fill="none" xmlns="http://www.w3.org/2000/svg">
<path d="M20.1875 3.71875L18.1562 0.46875C17.9688 0.1875 17.6562 0 17.3125 0H4.6875C4.34375 0 4 0.1875 3.8125 0.46875L1.8125 3.71875C0.875 5.1875 1.5 7.1875 3 7.8125V14.9062C3 15.5312 3.4375 16 4 16H18C18.5312 16 19 15.5312 19 14.9062V7.8125C20.5 7.1875 21.0938 5.1875 20.1875 3.71875ZM17.5 14.5H4.5V11.5H17.5V14.5ZM17.4688 10H4.5V8C5.25 7.875 5.90625 7.5 6.375 6.96875C6.9375 7.59375 7.75 8 8.6875 8C9.59375 8 10.4062 7.59375 10.9688 6.96875C11.5312 7.59375 12.375 8 13.2812 8C14.2188 8 15.0312 7.59375 15.5938 6.96875C16.0625 7.5 16.7188 7.875 17.4688 8V10ZM18.9688 5.84375C18.875 6.0625 18.625 6.4375 18.125 6.5C18.0625 6.5 17.9688 6.53125 17.9062 6.53125C17.4375 6.53125 17.0312 6.3125 16.7188 5.96875L15.5938 4.71875L14.5 5.96875C14.1875 6.3125 13.75 6.5 13.2812 6.5C12.8438 6.5 12.4062 6.3125 12.0938 5.96875L11 4.71875L9.875 5.96875C9.5625 6.3125 9.125 6.5 8.6875 6.5C8.21875 6.5 7.8125 6.3125 7.5 5.96875L6.375 4.71875L5.25 5.96875C4.9375 6.3125 4.53125 6.5 4.0625 6.5C4 6.5 3.90625 6.5 3.84375 6.5C3.34375 6.4375 3.09375 6.0625 3 5.84375C2.84375 5.5 2.78125 5 3.0625 4.53125L4.9375 1.5H17.0312L18.9062 4.53125C19.1875 5 19.125 5.5 18.9688 5.84375Z" fill="#4BB45E"/>
</svg>
