<svg width="16" height="16" viewBox="0 0 16 16" fill="none" xmlns="http://www.w3.org/2000/svg">
<path d="M14.4062 8C15.375 7.1875 16 5.96875 16 4.59375C16 2.0625 13.9375 0 11.4062 0C10.0312 0 8.8125 0.625 8 1.59375C7.15625 0.625 5.9375 0 4.5625 0C2.03125 0 0 2.0625 0 4.59375C0 5.96875 0.59375 7.1875 1.5625 8C0.59375 8.84375 0 10.0625 0 11.4375C0 13.9688 2.03125 16 4.5625 16C5.9375 16 7.15625 15.4062 8 14.4375C8.8125 15.4062 10.0312 16 11.4062 16C13.9375 16 16 13.9688 16 11.4375C16 10.0625 15.375 8.84375 14.4062 8ZM11.4062 14.5C10.5312 14.5 9.71875 14.125 9.125 13.4375L8 12.1562L6.84375 13.4375C6.25 14.125 5.4375 14.5 4.5625 14.5C2.875 14.5 1.5 13.125 1.5 11.4375C1.5 10.5625 1.875 9.75 2.5625 9.15625L3.84375 8L2.5625 6.875C1.875 6.28125 1.5 5.46875 1.5 4.59375C1.5 2.90625 2.875 1.53125 4.5625 1.5C5.4375 1.5 6.25 1.90625 6.84375 2.5625L8 3.875L9.125 2.5625C9.71875 1.875 10.5312 1.5 11.4062 1.5C13.0938 1.53125 14.4688 2.90625 14.5 4.59375C14.5 5.46875 14.0938 6.28125 13.4375 6.875L12.125 8L13.4375 9.15625C14.125 9.75 14.5 10.5625 14.5 11.4375C14.4688 13.125 13.0938 14.5 11.4062 14.5ZM8 5.5C6.59375 5.5 5.5 6.625 5.5 8C5.5 9.40625 6.59375 10.5 8 10.5C9.375 10.5 10.5 9.40625 10.5 8C10.5 6.625 9.375 5.5 8 5.5Z" fill="#4BB45E"/>
</svg>
